<?xml version="1.0" encoding="utf-8"?>
<!-- Generator: Adobe Illustrator 14.0.0, SVG Export Plug-In  -->
<!DOCTYPE svg PUBLIC "-//W3C//DTD SVG 1.1//EN" "http://www.w3.org/Graphics/SVG/1.1/DTD/svg11.dtd" [
	<!ENTITY ns_flows "http://ns.adobe.com/Flows/1.0/">
]>
<svg version="1.1"
	 xmlns="http://www.w3.org/2000/svg" xmlns:xlink="http://www.w3.org/1999/xlink" xmlns:a="http://ns.adobe.com/AdobeSVGViewerExtensions/3.0/"
	 x="0px" y="0px" width="27px" height="27px" viewBox="-0.3 -0.3 27 27" enable-background="new -0.3 -0.3 27 27"
	 xml:space="preserve">
<defs>
</defs>
<path fill="#3A5898" d="M18.5,0H7.8C3.5,0,0,3.5,0,7.8v10.6c0,4.3,3.5,7.8,7.8,7.8h10.6c4.3,0,7.8-3.5,7.8-7.8V7.8
	C26.3,3.5,22.8,0,18.5,0 M23.7,18.5c0,2.9-2.3,5.2-5.2,5.2h-3.6v-6.3h1.7c0.2,0,0.4-0.1,0.5-0.3l1.1-2.7c0.1-0.2-0.1-0.4-0.2-0.4h-3
	v-2.7c0-0.4,0.3-0.7,0.7-0.7h1.8c0.1,0,0.3-0.1,0.3-0.3V7c0-0.1-0.1-0.3-0.3-0.3h-2.4c-2.2,0-4,1.8-4,4V14H8.4
	c-0.1,0-0.3,0.1-0.3,0.3v2.8c0,0.1,0.1,0.3,0.3,0.3h2.4v6.3h-3c-2.9,0-5.2-2.3-5.2-5.2V7.8C2.6,5,5,2.6,7.8,2.6h10.6
	c2.9,0,5.2,2.3,5.2,5.2V18.5z"/>
</svg>
