<?xml version="1.0" encoding="utf-8"?>
<!-- Generator: Adobe Illustrator 14.0.0, SVG Export Plug-In  -->
<!DOCTYPE svg PUBLIC "-//W3C//DTD SVG 1.1//EN" "http://www.w3.org/Graphics/SVG/1.1/DTD/svg11.dtd" [
	<!ENTITY ns_flows "http://ns.adobe.com/Flows/1.0/">
]>
<svg version="1.1"
	 xmlns="http://www.w3.org/2000/svg" xmlns:xlink="http://www.w3.org/1999/xlink" xmlns:a="http://ns.adobe.com/AdobeSVGViewerExtensions/3.0/"
	 x="0px" y="0px" width="27px" height="27px" viewBox="-0.3 -0.3 27 27" enable-background="new -0.3 -0.3 27 27"
	 xml:space="preserve">
<defs>
</defs>
<path fill="#D02027" d="M18.5,0H7.8C3.5,0,0,3.5,0,7.8v10.6c0,4.3,3.5,7.8,7.8,7.8h10.6c4.3,0,7.8-3.5,7.8-7.8V7.8
	C26.3,3.5,22.8,0,18.5,0 M23.7,18.5c0,2.9-2.3,5.2-5.2,5.2H7.8c-2.9,0-5.2-2.3-5.2-5.2V7.8C2.6,5,5,2.6,7.8,2.6h10.6
	c2.9,0,5.2,2.3,5.2,5.2V18.5z"/>
<polygon fill="#D02027" points="18.4,15.6 18.4,14.3 17,14.3 17,11.7 18.4,11.7 18.4,10.3 21,10.3 21,11.7 22.4,11.7 22.4,14.3 
	21,14.3 21,15.6 "/>
<path fill="#D02027" d="M10,19.2c-0.2,0-0.3,0-0.5,0c-3-0.2-5.4-2.8-5.5-5.8C3.9,11.7,4.5,10.2,5.7,9C6.8,7.8,8.3,7.1,10,7.1
	c1.6,0,3.1,0.6,4.3,1.8l0.2,0.2L12.6,11l-0.2-0.2c-0.6-0.6-1.5-1-2.4-1c-1,0-2,0.5-2.6,1.2s-0.9,1.8-0.7,2.8
	c0.3,1.3,1.4,2.4,2.7,2.6c0.2,0,0.4,0.1,0.6,0.1c1.4,0,2.7-0.9,3.2-2.2H9.7v-2.6h6.1l0,0.2c0.1,0.4,0.1,0.9,0.1,1.3
	c0,0.3,0,0.6-0.1,0.9C15.5,17,12.9,19.2,10,19.2"/>
</svg>
