<?xml version="1.0" encoding="utf-8"?>
<!-- Generator: Adobe Illustrator 14.0.0, SVG Export Plug-In  -->
<!DOCTYPE svg PUBLIC "-//W3C//DTD SVG 1.1//EN" "http://www.w3.org/Graphics/SVG/1.1/DTD/svg11.dtd" [
	<!ENTITY ns_flows "http://ns.adobe.com/Flows/1.0/">
]>
<svg version="1.1"
	 xmlns="http://www.w3.org/2000/svg" xmlns:xlink="http://www.w3.org/1999/xlink" xmlns:a="http://ns.adobe.com/AdobeSVGViewerExtensions/3.0/"
	 x="0px" y="0px" width="160px" height="160px" viewBox="0 0 160 160" enable-background="new 0 0 160 160" xml:space="preserve">
<defs>
</defs>
<g>
	<defs>
		<rect id="SVGID_1_" width="160.424" height="160.424"/>
	</defs>
	<clipPath id="SVGID_2_">
		<use xlink:href="#SVGID_1_"  overflow="visible"/>
	</clipPath>
	<path clip-path="url(#SVGID_2_)" fill="#E14C13" d="M80.212,160.425C35.983,160.425,0,124.44,0,80.212C0,35.982,35.983,0,80.212,0
		c44.229,0,80.212,35.982,80.212,80.212C160.424,124.44,124.44,160.425,80.212,160.425 M80.212,3.821
		C38.09,3.821,3.821,38.09,3.821,80.212s34.269,76.39,76.391,76.39c42.123,0,76.392-34.268,76.392-76.39S122.335,3.821,80.212,3.821
		"/>
	<path clip-path="url(#SVGID_2_)" fill="#141515" d="M84.86,80.212c0,2.551-2.098,4.648-4.649,4.648c-2.551,0-4.62-2.098-4.62-4.648
		c0-2.552,2.069-4.621,4.62-4.621C82.763,75.591,84.86,77.66,84.86,80.212"/>
	<path clip-path="url(#SVGID_2_)" fill="#141515" d="M84.86,80.212c0,2.551-2.098,4.648-4.649,4.648c-2.551,0-4.62-2.098-4.62-4.648
		c0-2.552,2.069-4.621,4.62-4.621C82.763,75.591,84.86,77.66,84.86,80.212"/>
	<path clip-path="url(#SVGID_2_)" fill="#DAA567" d="M13.201,80.212c0,37.021,30.019,67.011,67.011,67.011
		c37.02,0,67.011-29.989,67.011-67.011c0-36.993-29.991-67.011-67.011-67.011C43.22,13.201,13.201,43.219,13.201,80.212"/>
	<path clip-path="url(#SVGID_2_)" fill="#FFFFFF" d="M34.603,129.308c5.386-20.126,23.754-34.923,45.609-34.923
		c21.856,0,40.251,14.797,45.639,34.923c-11.963,11.111-28.007,17.915-45.639,17.915C62.58,147.223,46.564,140.419,34.603,129.308"
		/>
	<path clip-path="url(#SVGID_2_)" fill="#DAA567" d="M94.811,99.601c0,3.94-7.313,7.145-16.328,7.145
		c-9.014,0-16.327-3.204-16.327-7.145c0-3.969,7.313-7.172,16.327-7.172C87.497,92.429,94.811,95.632,94.811,99.601"/>
	<path clip-path="url(#SVGID_2_)" fill="#FFFFFF" d="M56.146,142.772c0.34-8.531,0.708-18.624,0.85-25.937l-0.935,25.909
		L56.146,142.772z"/>
	<path clip-path="url(#SVGID_2_)" fill="#DAA567" d="M55.494,142.517l1.134-25.682l0.708,0.029l-0.708,26.078
		C56.259,142.801,55.862,142.66,55.494,142.517"/>
	<path clip-path="url(#SVGID_2_)" fill="#DAA567" d="M104.873,112.81l0.369,29.595c-0.481,0.198-0.993,0.368-1.474,0.566
		l0.396-30.161H104.873z"/>
	<path clip-path="url(#SVGID_2_)" fill="#DAA567" d="M36.587,118.395h20.409v9.949H33.582c-0.311-0.311-0.595-0.595-0.878-0.879
		L36.587,118.395z"/>
	<path clip-path="url(#SVGID_2_)" fill="#DAA567" d="M44.183,136.706h12.501v6.266C52.262,141.326,48.095,139.229,44.183,136.706"/>
	<path clip-path="url(#SVGID_2_)" fill="#DAA567" d="M36.587,118.395h20.409v9.949H33.582c-0.311-0.311-0.595-0.595-0.878-0.879
		L36.587,118.395z"/>
	<path clip-path="url(#SVGID_2_)" fill="#DAA567" d="M44.183,136.706h12.501v6.266C52.262,141.326,48.095,139.229,44.183,136.706"/>
	<polygon clip-path="url(#SVGID_2_)" fill="#DAA567" points="123.554,114.369 104.816,114.369 104.816,124.29 127.466,124.29 	"/>
	<path clip-path="url(#SVGID_2_)" fill="#DAA567" d="M121.909,132.681h-17.093v9.895
		C111.024,140.108,116.778,136.763,121.909,132.681"/>
	<rect x="56.372" y="120.89" clip-path="url(#SVGID_2_)" fill="#DAA567" width="47.821" height="10.233"/>
	<path clip-path="url(#SVGID_2_)" fill="#DAA567" d="M56.316,142.829l0.057-1.758h47.82v1.73c-7.426,2.861-15.533,4.422-23.98,4.422
		C71.792,147.224,63.743,145.663,56.316,142.829"/>
	<path clip-path="url(#SVGID_2_)" fill="#E8441B" d="M68.25,102.577c2.58,0.538,5.414,0.852,8.419,0.852
		c5.074,0,9.693-0.852,13.209-2.297v-8.505H68.25V102.577z"/>
	<path clip-path="url(#SVGID_2_)" fill="#E8441B" d="M88.461,79.729c-1.502,9.724-11.565,14.77-22.762,14.825
		c-10.404,0.029-18.766-10.771-17.377-20.437C49.74,64.395,60,57.762,71.084,59.321C82.168,60.852,89.935,70.007,88.461,79.729"/>
	<path clip-path="url(#SVGID_2_)" fill="#E8441B" d="M112.839,73.324c-2.778,14.854-16.441,24.661-30.559,21.912
		c-14.116-2.722-23.3-16.979-20.522-31.805c2.75-14.854,16.441-24.661,30.53-21.912C106.403,44.241,115.589,58.499,112.839,73.324"
		/>
	<path clip-path="url(#SVGID_2_)" fill="#E8441B" d="M100.649,81.657c-1.616,11.282-13.86,18.794-27.354,16.781
		C59.803,96.427,50.165,85.683,51.781,74.4c1.587-11.282,13.861-18.793,27.354-16.781C92.628,59.604,102.266,70.375,100.649,81.657"
		/>
	<path clip-path="url(#SVGID_2_)" fill="#E8441B" d="M114.908,63.998c-1.56,19.275-18.17,33.59-37.077,32.003
		s-32.967-18.51-31.38-37.786C48.01,38.939,64.593,24.596,83.5,26.212C102.407,27.799,116.467,44.722,114.908,63.998"/>
	<path clip-path="url(#SVGID_2_)" fill="#FFFFFF" d="M114.908,63.998c0.85,0-22.507,1.559-22.904-22.677
		c0,0-8.475,17.659-30.671,16.412l0.765-2.097c0,0-13.379,0.056-19.332-3.799c-0.567-1.077,21.373-39.741,49.89-23.386
		c0.454,0.256,0.17,0.34,0.651,0.256C96.851,28.168,115.786,36.36,114.908,63.998"/>
	<polygon clip-path="url(#SVGID_2_)" fill="#FFFFFF" points="72.331,79.277 65.925,78.993 69.638,69.497 70.574,69.866 
		67.371,78.03 72.388,78.256 	"/>
	<path clip-path="url(#SVGID_2_)" fill="#FFFFFF" d="M54.729,75.62c-0.595,0-1.134,0.198-1.587,0.596
		c-0.511,0.424-0.822,1.048-0.879,1.7c-0.057,0.68,0.17,1.333,0.595,1.843c0.425,0.51,1.021,0.822,1.673,0.878
		c0.652,0.057,1.303-0.141,1.785-0.595c0.511-0.425,0.823-1.021,0.879-1.7c0.114-1.389-0.907-2.609-2.267-2.722H54.729z
		 M54.729,81.657h-0.283c-0.936-0.085-1.758-0.511-2.353-1.247c-0.595-0.709-0.907-1.645-0.822-2.58
		c0.085-0.936,0.51-1.785,1.219-2.409c0.708-0.595,1.587-0.908,2.523-0.822c1.899,0.169,3.344,1.871,3.174,3.827
		c-0.084,0.935-0.51,1.786-1.219,2.409C56.344,81.375,55.55,81.657,54.729,81.657"/>
	<path clip-path="url(#SVGID_2_)" fill="#FFFFFF" d="M85.683,75.62c-1.275,0-2.353,0.992-2.466,2.296
		c-0.057,0.68,0.17,1.333,0.595,1.843c0.425,0.51,1.021,0.822,1.672,0.878c0.652,0.057,1.305-0.141,1.786-0.595
		c0.512-0.425,0.822-1.021,0.879-1.7c0.113-1.389-0.906-2.609-2.268-2.722H85.683z M85.683,81.657h-0.284
		c-0.935-0.085-1.757-0.511-2.352-1.247c-0.595-0.709-0.879-1.645-0.822-2.58c0.169-1.927,1.842-3.402,3.741-3.231
		c1.9,0.169,3.345,1.871,3.175,3.827c-0.085,0.935-0.51,1.786-1.219,2.409C87.299,81.375,86.505,81.657,85.683,81.657"/>
	<path clip-path="url(#SVGID_2_)" fill="#FFFFFF" d="M100.564,75.365c-0.227,0-0.454-0.028-0.651-0.085l0.312-0.964
		c0.708,0.227,1.502-0.368,1.899-0.737c1.615-1.502,2.75-4.394,2.353-6.038c-0.114-0.453-0.312-0.737-0.652-0.878
		c-1.076-0.482-3.117,0.396-3.799,0.765l-0.481-0.907c0.312-0.17,2.977-1.559,4.678-0.794c0.623,0.284,1.049,0.822,1.218,1.559
		c0.512,2.211-0.963,5.471-2.636,7.03C102.066,75.024,101.302,75.365,100.564,75.365"/>
	<path clip-path="url(#SVGID_2_)" fill="#FFFFFF" d="M67.03,88.148c0,0,7.994,5.557,12.785-0.595L67.03,88.148z"/>
	<path clip-path="url(#SVGID_2_)" fill="#E8441B" d="M60.766,56.6c-2.495,0-4.025-0.227-4.082-0.255l0.17-0.993
		c0.199,0.029,19.332,3.119,31.975-13.379l0.793,0.652C80.183,54.898,67.257,56.6,60.766,56.6"/>
	<path clip-path="url(#SVGID_2_)" fill="#E8441B" d="M113.292,62.183c-18.34,0-19.813-19.077-19.813-19.275l0.991-0.085
		c0.057,0.765,1.417,18.368,18.822,18.368c0.143,0,0.283,0,0.425-0.029v1.021H113.292z"/>
	<path clip-path="url(#SVGID_2_)" fill="#E8441B" d="M60,53.141c-7.257,0-12.586-1.899-12.699-1.956l0.34-0.963
		c0.227,0.085,23.102,8.333,38.721-10.149l0.766,0.652C78.653,50.76,68.108,53.141,60,53.141"/>
	<path clip-path="url(#SVGID_2_)" fill="#FFFFFF" d="M61.56,64.253c0,2.211-1.247,4.025-2.778,4.025
		c-1.559,0-2.778-1.814-2.778-4.025c0-2.239,1.219-4.054,2.778-4.054C60.313,60.199,61.56,62.014,61.56,64.253"/>
	<path clip-path="url(#SVGID_2_)" fill="#E8441B" d="M61.787,60.908l-2.863,3.855h3.373C62.296,64.763,61.673,60.908,61.787,60.908"
		/>
	<path clip-path="url(#SVGID_2_)" fill="#FFFFFF" d="M86.731,64.253c0,2.211-1.248,4.025-2.777,4.025
		c-1.56,0-2.778-1.814-2.778-4.025c0-2.239,1.219-4.054,2.778-4.054C85.483,60.199,86.731,62.014,86.731,64.253"/>
	<path clip-path="url(#SVGID_2_)" fill="#E8441B" d="M86.958,60.908l-2.863,3.855h3.373C87.468,64.763,86.845,60.908,86.958,60.908"
		/>
	<path clip-path="url(#SVGID_2_)" fill="#DAA567" d="M73.466,98.24c-6.747,0-12.019-3.486-12.076-3.544l0.368-0.595
		c0.086,0.057,7.399,4.932,15.761,2.977l0.142,0.708C76.244,98.128,74.826,98.24,73.466,98.24"/>
</g>
</svg>
