<?xml version="1.0" encoding="utf-8"?>
<!-- Generator: Adobe Illustrator 14.0.0, SVG Export Plug-In  -->
<!DOCTYPE svg PUBLIC "-//W3C//DTD SVG 1.1//EN" "http://www.w3.org/Graphics/SVG/1.1/DTD/svg11.dtd" [
	<!ENTITY ns_flows "http://ns.adobe.com/Flows/1.0/">
]>
<svg version="1.1"
	 xmlns="http://www.w3.org/2000/svg" xmlns:xlink="http://www.w3.org/1999/xlink" xmlns:a="http://ns.adobe.com/AdobeSVGViewerExtensions/3.0/"
	 x="0px" y="0px" width="27px" height="27px" viewBox="-0.3 -0.3 27 27" enable-background="new -0.3 -0.3 27 27"
	 xml:space="preserve">
<defs>
</defs>
<path fill="#F08729" d="M18.5,0H7.8C3.5,0,0,3.5,0,7.8v10.6c0,4.3,3.5,7.8,7.8,7.8h10.6c4.3,0,7.8-3.5,7.8-7.8V7.8
	C26.3,3.5,22.8,0,18.5,0 M23.7,18.5c0,2.9-2.3,5.2-5.2,5.2H7.8c-2.9,0-5.2-2.3-5.2-5.2V7.8C2.6,5,5,2.6,7.8,2.6h10.6
	c2.9,0,5.2,2.3,5.2,5.2V18.5z"/>
<path fill="#F08729" d="M13.1,13.3c2.6,0,4.7-2.1,4.7-4.6c0-2.6-2.1-4.7-4.6-4.7c-2.6,0-4.7,2.1-4.7,4.6
	C8.5,11.2,10.6,13.3,13.1,13.3 M13.2,6.4c1.3,0,2.3,1,2.3,2.3c0,1.3-1,2.3-2.3,2.3c-1.3,0-2.3-1-2.3-2.3C10.9,7.4,11.9,6.4,13.2,6.4
	"/>
<path fill="#F08729" d="M17.3,13.3c-0.3,0.1-0.5,0.2-0.7,0.3c-2.1,1.4-4.9,1.3-6.9-0.1c-0.1-0.1-0.2-0.1-0.3-0.2
	c-0.6-0.3-1.1-0.1-1.4,0.3c-0.4,0.5-0.3,1.1,0.1,1.5c0.1,0.1,0.3,0.2,0.4,0.3c1.1,0.9,2.4,1.2,3.8,1.4c-0.1,0.1-0.2,0.2-0.2,0.3
	c-1,1-2.1,2.1-3.1,3.1c-0.2,0.2-0.4,0.5-0.4,0.8c0,0.5,0.3,0.9,0.7,1.2c0.4,0.2,0.9,0.1,1.2-0.2c0.8-0.8,1.6-1.6,2.4-2.5
	c0.2-0.2,0.3-0.3,0.5,0c0.8,0.8,1.6,1.6,2.4,2.4c0.2,0.2,0.4,0.4,0.7,0.4c0.5,0,1-0.3,1.2-0.7c0.2-0.4,0.1-0.9-0.2-1.2
	c-1.1-1.1-2.1-2.1-3.2-3.2c-0.1-0.1-0.1-0.1-0.2-0.3c0.8-0.1,1.6-0.2,2.3-0.5c0.8-0.3,1.4-0.7,2-1.3c0.4-0.4,0.4-0.9,0.1-1.4
	C18.2,13.4,17.7,13.2,17.3,13.3"/>
</svg>
