<?xml version="1.0" encoding="utf-8"?>
<!-- Generator: Adobe Illustrator 14.0.0, SVG Export Plug-In  -->
<!DOCTYPE svg PUBLIC "-//W3C//DTD SVG 1.1//EN" "http://www.w3.org/Graphics/SVG/1.1/DTD/svg11.dtd" [
	<!ENTITY ns_flows "http://ns.adobe.com/Flows/1.0/">
]>
<svg version="1.1"
	 xmlns="http://www.w3.org/2000/svg" xmlns:xlink="http://www.w3.org/1999/xlink" xmlns:a="http://ns.adobe.com/AdobeSVGViewerExtensions/3.0/"
	 x="0px" y="0px" width="27px" height="27px" viewBox="-0.3 -0.3 27 27" enable-background="new -0.3 -0.3 27 27"
	 xml:space="preserve">
<defs>
</defs>
<path fill="#3F9CD7" d="M18.5,0H7.8C3.5,0,0,3.5,0,7.8v10.6c0,4.3,3.5,7.8,7.8,7.8h10.6c4.3,0,7.8-3.5,7.8-7.8V7.8
	C26.3,3.5,22.8,0,18.5,0 M23.7,18.5c0,2.9-2.3,5.2-5.2,5.2H7.8c-2.9,0-5.2-2.3-5.2-5.2V7.8C2.6,5,5,2.6,7.8,2.6h10.6
	c2.9,0,5.2,2.3,5.2,5.2V18.5z"/>
<path fill="#3F9CD7" d="M19.6,9.2c-0.5,0.2-1,0.4-1.5,0.4c0.5-0.3,1-0.8,1.2-1.5c-0.5,0.3-1.1,0.5-1.7,0.6C17.1,8.3,16.4,8,15.6,8
	C14.2,8,13,9.1,13,10.6c0,0.2,0,0.4,0.1,0.6c-2.2-0.1-4.1-1.2-5.4-2.7C7.4,8.8,7.3,9.3,7.3,9.8c0,0.9,0.5,1.7,1.2,2.2
	c-0.4,0-0.8-0.1-1.2-0.3v0c0,1.3,0.9,2.3,2.1,2.6c-0.2,0.1-0.5,0.1-0.7,0.1c-0.2,0-0.3,0-0.5,0c0.3,1,1.3,1.8,2.5,1.8
	c-0.9,0.7-2,1.1-3.3,1.1c-0.2,0-0.4,0-0.6,0c1.2,0.7,2.5,1.2,4,1.2c4.8,0,7.5-4,7.5-7.5l0-0.3C18.8,10.2,19.2,9.7,19.6,9.2"/>
</svg>
