<?xml version="1.0" encoding="utf-8"?>
<!-- Generator: Adobe Illustrator 14.0.0, SVG Export Plug-In  -->
<!DOCTYPE svg PUBLIC "-//W3C//DTD SVG 1.1//EN" "http://www.w3.org/Graphics/SVG/1.1/DTD/svg11.dtd" [
	<!ENTITY ns_flows "http://ns.adobe.com/Flows/1.0/">
]>
<svg version="1.1"
	 xmlns="http://www.w3.org/2000/svg" xmlns:xlink="http://www.w3.org/1999/xlink" xmlns:a="http://ns.adobe.com/AdobeSVGViewerExtensions/3.0/"
	 x="0px" y="0px" width="27px" height="27px" viewBox="-0.3 -0.3 27 27" enable-background="new -0.3 -0.3 27 27"
	 xml:space="preserve">
<defs>
</defs>
<path fill="#5574B9" d="M18.5,0H7.8C3.5,0,0,3.5,0,7.8v10.6c0,4.3,3.5,7.8,7.8,7.8h10.6c4.3,0,7.8-3.5,7.8-7.8V7.8
	C26.3,3.5,22.8,0,18.5,0 M23.7,18.5c0,2.9-2.3,5.2-5.2,5.2H7.8c-2.9,0-5.2-2.3-5.2-5.2V7.8C2.6,5,5,2.6,7.8,2.6h10.6
	c2.9,0,5.2,2.3,5.2,5.2V18.5z"/>
<path fill="#5574B9" d="M21.2,9.1h-2.3c-0.2,0-0.4,0.2-0.5,0.4c-0.3,1.2-1.3,4.6-3.2,4.9c-0.2,0-0.3-0.1-0.3-0.3V9.4
	c0-0.3-0.2-0.5-0.5-0.5l-3.2,0c-0.2,0-0.4,0.3-0.2,0.4c0.3,0.3,0.6,0.9,0.6,1.8v3c0,0.2-0.2,0.3-0.3,0.3C9.3,14,8.3,10.6,8,9.5
	C7.9,9.2,7.7,9.1,7.4,9.1H5.2c-0.3,0-0.6,0.3-0.5,0.6c0.5,2.2,2.6,9.1,8.5,9.1l0,0h1.2c0.3,0,0.5-0.2,0.5-0.5v-0.7
	c0-0.5,0.6-0.7,0.9-0.4l1,1.1c0.3,0.3,0.7,0.5,1.2,0.5h3.3c0.2,0,0.3-0.3,0.2-0.4L19,15.8c1.7-2.2,2.4-4.9,2.7-6.1
	C21.8,9.4,21.5,9.1,21.2,9.1"/>
</svg>
